<?xml version="1.0" encoding="UTF-8"?>
<svg width="136px" height="136px" viewBox="0 0 136 136" version="1.1" xmlns="http://www.w3.org/2000/svg" xmlns:xlink="http://www.w3.org/1999/xlink">
    <!-- Generator: Sketch 52.5 (67469) - http://www.bohemiancoding.com/sketch -->
    <title>Redbee_logo white</title>
    <desc>Created with Sketch.</desc>
    <defs>
        <polygon id="path-1" points="0 0.126987269 57.9779038 0.126987269 57.9779038 34.6523679 0 34.6523679"></polygon>
        <polygon id="path-3" points="0.226973289 0.00644746129 27.8346919 0.00644746129 27.8346919 27.6744853 0.226973289 27.6744853"></polygon>
        <polygon id="path-5" points="0.173368744 0.0257967914 34.5643146 0.0257967914 34.5643146 34.3554738 0.173368744 34.3554738"></polygon>
    </defs>
    <g id="Page-1" stroke="none" stroke-width="1" fill="none" fill-rule="evenodd">
        <g id="Landing-home-05" transform="translate(-334.000000, -304.000000)">
            <g id="Redbee_logo-white" transform="translate(330.000000, 300.000000)">
                <g id="Group-8-Copy" transform="translate(4.363636, 4.363636)">
                    <g id="Group-7" transform="translate(17.454545, 21.818182)">
                        <g id="Group-3" transform="translate(0.000000, 43.893048)">
                            <mask id="mask-2" fill="white">
                                <use xlink:href="#path-1"></use>
                            </mask>
                            <g id="Clip-2"></g>
                            <path d="M46.2280226,23.0853947 C43.3666809,19.4245604 41.5477969,12.6877476 41.0923737,4.64068877 C45.787847,4.00693476 51.7829818,5.9644107 52.8342671,11.441416 C53.9718219,17.3677476 50.8500665,20.5507636 46.2280226,23.0853947 M18.82559,23.1208171 C16.6114708,17.3265497 21.8999975,10.7672342 28.8990696,7.83987594 C28.8990696,7.83987594 28.529916,18.4866353 34.3801981,28.0249027 C27.6399348,29.4464214 20.4554834,27.3849882 18.82559,23.1208171 M55.6562859,6.5535016 C55.2385806,5.17549091 54.4629567,2.9088385 50.3785931,1.48847487 C44.0191197,-0.72388877 35.6714332,-0.0192898396 30.3098784,2.02289198 C19.5173517,6.13420749 14.7769379,12.6731166 12.3569755,19.7564535 C10.4991699,25.1961112 7.02912602,29.5569241 -4.01253919e-05,34.6523679 C9.02897555,31.9021219 15.3310696,27.3938439 15.3310696,27.3938439 C19.3688878,31.6495444 30.0350194,35.416261 42.1348313,30.6303786 C49.3301166,27.7838759 53.4273204,24.6355123 56.0463047,20.9323251 C57.4053517,19.0102717 58.4068815,16.5599615 57.7933643,14.0287957 C57.2492639,11.7833198 56.3773392,8.93296684 55.6562859,6.5535016" id="Fill-1" fill="#FFFFFF" mask="url(#mask-2)"></path>
                        </g>
                        <g id="Group-6" transform="translate(76.800000, 39.272727)">
                            <mask id="mask-4" fill="white">
                                <use xlink:href="#path-3"></use>
                            </mask>
                            <g id="Clip-5"></g>
                            <path d="M19.7889211,18.054973 C17.2330018,17.0934182 13.5328295,15.3869357 10.782567,11.6987316 C8.71097544,8.92059869 8.99330869,5.99633161 11.0824982,5.14764468 C16.6595363,2.88117928 22.5831787,15.7188068 23.2285665,17.4993464 C23.8793102,19.2949351 20.9710482,18.500504 19.7889211,18.054973 M20.0727847,5.440309 C14.6721092,0.401255065 6.41979138,-2.33410689 2.10521903,2.62098921 C-1.33748682,6.57492779 -0.15459467,14.7493315 6.5422123,20.9792401 C14.0623,27.975858 22.0273112,29.7591698 26.1341505,25.0424823 C30.2122975,20.359061 26.4681301,11.4080474 20.0727847,5.440309" id="Fill-4" fill="#FFFFFF" mask="url(#mask-4)"></path>
                        </g>
                        <path d="M44.9595373,34.0895893 C35.1045498,35.2817515 28.8223987,34.1110943 26.4227087,31.0100648 C22.4015741,25.8132695 25.83494,20.2348572 31.6209745,19.6029995 C44.3709716,18.2106446 57.0229409,33.6082669 57.0229409,33.6082669 C57.0229409,33.6082669 52.1191572,33.2235219 44.9595373,34.0895893 M35.4305123,14.0695523 C23.498211,12.167723 13.2427438,23.6275735 21.7488521,33.9179398 C27.6978678,41.1147056 41.1699238,39.3098446 50.5499145,38.3237399 C58.7886378,37.4576725 65.1636364,37.6500451 65.1636364,37.6500451 C56.4100676,23.431682 46.9208914,15.9010013 35.4305123,14.0695523" id="Fill-7" fill="#FFFFFF"></path>
                        <g id="Group-11" transform="translate(32.581818, 0.000000)">
                            <mask id="mask-6" fill="white">
                                <use xlink:href="#path-5"></use>
                            </mask>
                            <g id="Clip-10"></g>
                            <path d="M11.0873626,0.0257197861 C2.67701736,0.0257197861 0.588747702,7.33660749 0.173368744,9.34760214 C2.13337692,9.42114225 4.05023902,9.74533476 5.91258018,10.2716663 C6.40719101,8.30148449 7.9271093,4.79119572 12.438619,5.56933476 C19.0172176,6.70400856 25.7523187,15.7848642 28.0688703,24.9769925 C32.1238161,29.9045647 34.5643146,34.3554738 34.5643146,34.3554738 C33.3275914,15.4498909 20.8375894,0.0257197861 11.0873626,0.0257197861" id="Fill-9" fill="#FFFFFF" mask="url(#mask-6)"></path>
                        </g>
                        <path d="M58.3190037,47.5835988 C57.9475787,46.0608723 58.3420994,45.2344096 59.3602053,44.5529684 C60.7247472,43.6391722 63.1293549,42.0455374 66.6807988,41.7162342 C70.2333785,41.3869311 72.2343786,41.7334605 73.3032193,42.0443355 C73.6913036,42.1569075 73.9131742,42.5803545 73.8048892,42.9905813 C73.1229968,45.5777341 71.5555152,54.880748 81.1860617,63.3224459 C81.7305155,63.7999755 81.3886227,64.7330011 80.6824988,64.6825239 C76.9474248,64.4149151 69.2345823,63.380134 62.3683312,59.1504716 C61.1582657,58.4045319 60.897776,57.8789289 60.4881105,56.2712726 C59.6411404,52.9473941 59.2193591,51.2756398 58.3190037,47.5835988" id="Fill-12" fill="#FFFFFF"></path>
                    </g>
                </g>
            </g>
        </g>
    </g>
</svg>