<svg version="1.1"
	 xmlns="http://www.w3.org/2000/svg" xmlnsXlink="http://www.w3.org/1999/xlink" xmlnsA="http://ns.adobe.com/AdobeSVGViewerExtensions/3.0/"
	 x="0px" y="0px" width="646.2px" height="155px" viewBox="0 0 646.2 155" style="enable-background:new 0 0 646.2 155;"
	 xml:space="preserve">
	<style type="text/css">
	.st0{fill:#ffffff;}
	.st1{fill:#ffffff;}
</style>
	<defs></defs>
	<path class="st0" d="M61.8,1.6C25.2,2.1,0,32.3,0,66.4v0.4c0,35.8,25.3,64.4,64.6,64.4c18.6,0,33.5-6.8,45-15.2
	c3.2-2.1,4.4-5.2,4.4-8.6V69.2c0-3.9-1.4-5.7-5.1-5.7H68.6c-3.4,0-6.3,3-6.3,6.6c0,3.4,2.9,6.4,6.3,6.4h31.3v29.3
	c-8,7-21.5,12.5-35.8,12.5C33.8,118.4,15,96.2,15,66.4V66c0-27.8,20.5-51.2,48.1-51.3l41,0l6-13L63,1.6L61.8,1.6z"/>
	<path class="st0" d="M348.8,7.6c0-3.9,3.3-7,7.2-7h1.7c3.1,0,5.4,1.6,6.9,3.8L410.8,74l46.3-69.6c1.5-2.4,3.9-3.8,6.9-3.8h1.7
	c3.9,0,7.1,3.2,7.1,7v116.6c0,4.1-3.5,7.4-7.4,7.4c-4.1,0-7.6-3.5-7.6-7.4V27.4l-41.3,61c-1.7,2.4-3.4,3.7-6,3.7
	c-2.6,0-4.7-1.3-6.3-3.7l-41.4-60.8v96.7c0,4.1-3,7.2-7.1,7.2c-3.9,0-6.9-3.2-6.9-7.2V7.6z"/>
	<path class="st0" d="M499.7,7.4c0-4.1,3.5-7.4,7.4-7.4c4.1,0,7.6,3.3,7.6,7.4v116.7c0,4.1-3.5,7.4-7.6,7.4c-3.9,0-7.4-3.3-7.4-7.4
	V7.4z"/>
	<path class="st0" d="M586.6,14.6h-37.3c-3.7,0-6.9-3.2-6.9-6.9c0-3.7,3.2-7.1,6.9-7.1h90c3.7,0,6.9,3.4,6.9,7.1
	c0,3.7-3.1,6.9-6.9,6.9h-37.7v109.6c0,4.1-3.4,7.4-7.5,7.4c-4.1,0-7.5-3.3-7.5-7.4V14.6z"/>
	<g>
		<path class="st1" d="M275.2,3c-1.6-1.3-3.5-1.4-5.9-1.4h-0.7c-4.6,0-7.3,2.7-9.1,6.7l-50.3,110.3h-64.2V13.5V7.7v0
		c0-4.1-1.4-6.1-5.3-6.1h-15.8l-6,13h13.2v108.1c0,4.1,4.7,8.9,8.6,8.9h74.1c2,0,3.7-1.6,4.9-3c0.2-0.3,0.5-0.9,0.6-1.2
		c0.4-0.7,1-1.4,1.3-2c4.8-10.5,18.7-41.8,18.7-41.8h0l4.8-11L275.2,3z"/>
		<ellipse class="st1" cx="140.7" cy="146.8" rx="8.2" ry="8.2"/>
		<ellipse class="st1" cx="201.7" cy="146.8" rx="8.2" ry="8.2"/>
	</g>
	<path class="st0" d="M331.6,120.8L283.2,15.2l-7.4,18l23.2,53.3h-46.5l-5.9,12h58.2l13.5,28.7c1.3,3,3.7,4.9,7.2,4.9
	c3.9,0,7-3.4,7-7.3C332.5,123.7,332.1,122.1,331.6,120.8z"/>
</svg>