<?xml version="1.0" encoding="utf-8"?>
<!-- Generator: Adobe Illustrator 17.0.0, SVG Export Plug-In . SVG Version: 6.00 Build 0)  -->
<!DOCTYPE svg PUBLIC "-//W3C//DTD SVG 1.1//EN" "http://www.w3.org/Graphics/SVG/1.1/DTD/svg11.dtd" [
	<!ENTITY ns_extend "http://ns.adobe.com/Extensibility/1.0/">
	<!ENTITY ns_ai "http://ns.adobe.com/AdobeIllustrator/10.0/">
	<!ENTITY ns_graphs "http://ns.adobe.com/Graphs/1.0/">
	<!ENTITY ns_vars "http://ns.adobe.com/Variables/1.0/">
	<!ENTITY ns_imrep "http://ns.adobe.com/ImageReplacement/1.0/">
	<!ENTITY ns_sfw "http://ns.adobe.com/SaveForWeb/1.0/">
	<!ENTITY ns_custom "http://ns.adobe.com/GenericCustomNamespace/1.0/">
	<!ENTITY ns_adobe_xpath "http://ns.adobe.com/XPath/1.0/">
]>
<svg version="1.1" id="Layer_1" xmlnsX="&ns_extend;" xmlnsI="&ns_ai;" xmlnsGraph="&ns_graphs;"
	 xmlns="http://www.w3.org/2000/svg" xmlnsXlink="http://www.w3.org/1999/xlink" x="0px" y="0px" width="230px" height="90px"
	 viewBox="0 0 230 90" enable-background="new 0 0 230 90" xmlSpace="preserve">
<metadata>
	<sfw  xmlns="&ns_sfw;">
		<slices></slices>
		<sliceSourceBounds  width="221.142" height="79.211" bottomLeftOrigin="true" x="39.429" y="-69.211"></sliceSourceBounds>
	</sfw>
</metadata>
<g>
	<g>
		<path fill="#E3E2E2" d="M60.081,29.761c0-0.32,0.256-0.608,0.608-0.608h13.023c0.352,0,0.608,0.288,0.608,0.608v2.624
			c0,0.32-0.256,0.608-0.608,0.608h-9.471v6.015h7.903c0.32,0,0.608,0.288,0.608,0.608v2.623c0,0.32-0.288,0.608-0.608,0.608h-7.903
			v8.095c0,0.32-0.288,0.608-0.608,0.608h-2.944c-0.352,0-0.608-0.288-0.608-0.608V29.761z"/>
		<path fill="#E3E2E2" d="M76.016,50.719l9.951-21.533c0.096-0.192,0.256-0.352,0.544-0.352h0.32c0.32,0,0.448,0.16,0.544,0.352
			l9.855,21.533c0.192,0.416-0.064,0.832-0.544,0.832h-2.783c-0.48,0-0.704-0.192-0.928-0.64l-1.568-3.456h-9.567l-1.568,3.456
			c-0.128,0.32-0.416,0.64-0.928,0.64H76.56C76.08,51.55,75.824,51.134,76.016,50.719z M89.838,43.903l-3.2-7.039h-0.096
			l-3.135,7.039H89.838z"/>
		<path fill="#E3E2E2" d="M111.501,28.833c3.232,0,5.567,1.024,7.743,2.975c0.288,0.256,0.288,0.64,0.032,0.896l-1.952,2.016
			c-0.224,0.256-0.544,0.256-0.8,0c-1.344-1.184-3.135-1.888-4.927-1.888c-4.095,0-7.135,3.423-7.135,7.455
			c0,4,3.072,7.392,7.167,7.392c1.92,0,3.552-0.736,4.895-1.824c0.256-0.224,0.608-0.192,0.8,0l1.984,2.048
			c0.256,0.224,0.192,0.64-0.032,0.864c-2.176,2.111-4.927,3.104-7.775,3.104c-6.399,0-11.55-5.088-11.55-11.487
			C99.951,33.985,105.102,28.833,111.501,28.833z"/>
		<path fill="#E3E2E2" d="M128.076,32.993h-4.895c-0.352,0-0.608-0.288-0.608-0.608v-2.624c0-0.32,0.256-0.608,0.608-0.608h13.982
			c0.352,0,0.608,0.288,0.608,0.608v2.624c0,0.32-0.256,0.608-0.608,0.608h-4.895v17.949c0,0.32-0.288,0.608-0.608,0.608h-2.975
			c-0.32,0-0.608-0.288-0.608-0.608V32.993z"/>
		<path fill="#E3E2E2" d="M152.362,28.833c6.399,0,11.519,5.151,11.519,11.551c0,6.399-5.119,11.487-11.519,11.487
			c-6.399,0-11.487-5.088-11.487-11.487C140.875,33.985,145.963,28.833,152.362,28.833z M152.362,47.711
			c4.032,0,7.359-3.296,7.359-7.327c0-4.032-3.328-7.391-7.359-7.391c-4.031,0-7.327,3.359-7.327,7.391
			C145.035,44.415,148.33,47.711,152.362,47.711z"/>
		<path fill="#E3E2E2" d="M169.673,29.761c0-0.32,0.256-0.608,0.608-0.608h9.151c3.839,0,6.975,3.072,6.975,6.88
			c0,2.944-1.952,5.343-4.735,6.463l4.383,8.127c0.224,0.416,0,0.928-0.544,0.928h-3.359c-0.288,0-0.448-0.16-0.512-0.288
			l-4.255-8.479h-3.552v8.159c0,0.32-0.288,0.608-0.608,0.608h-2.944c-0.352,0-0.608-0.288-0.608-0.608V29.761z M179.08,39.36
			c1.696,0,3.168-1.471,3.168-3.264c0-1.696-1.472-3.103-3.168-3.103h-5.215v6.367H179.08z"/>
		<path fill="#E3E2E2" d="M201.254,29.761c0-0.32,0.288-0.608,0.608-0.608h2.976c0.32,0,0.608,0.288,0.608,0.608v21.181
			c0,0.32-0.288,0.608-0.608,0.608h-2.976c-0.32,0-0.608-0.288-0.608-0.608V29.761z"/>
		<path fill="#E3E2E2" d="M215.876,32.993h-4.895c-0.352,0-0.608-0.288-0.608-0.608v-2.624c0-0.32,0.256-0.608,0.608-0.608h13.982
			c0.352,0,0.608,0.288,0.608,0.608v2.624c0,0.32-0.256,0.608-0.608,0.608h-4.895v17.949c0,0.32-0.288,0.608-0.608,0.608h-2.975
			c-0.32,0-0.608-0.288-0.608-0.608V32.993z"/>
		<g>
			<path fill="#EF7E08" d="M115.527,57.602c0.008-0.065,0.056-0.121,0.144-0.121h0.129c0.064,0,0.113,0.032,0.137,0.08l1.767,3.791
				c0.016,0,0.016,0,0.024,0l1.767-3.791c0.024-0.048,0.064-0.08,0.136-0.08h0.129c0.088,0,0.137,0.056,0.145,0.121L120.853,63
				c0.024,0.112-0.04,0.185-0.145,0.185h-0.731c-0.072,0-0.136-0.064-0.153-0.121l-0.474-3.045c-0.008,0-0.024,0-0.024,0
				l-1.406,3.157c-0.016,0.048-0.064,0.088-0.136,0.088h-0.145c-0.072,0-0.112-0.04-0.136-0.088l-1.422-3.157c0,0-0.016,0-0.024,0
				l-0.466,3.045c-0.008,0.057-0.072,0.121-0.144,0.121h-0.723c-0.104,0-0.169-0.072-0.153-0.185L115.527,57.602z"/>
			<path fill="#EF7E08" d="M127.934,57.481c1.607,0,2.892,1.293,2.892,2.9c0,1.606-1.285,2.884-2.892,2.884
				c-1.607,0-2.884-1.277-2.884-2.884C125.05,58.774,126.328,57.481,127.934,57.481z M127.934,62.22
				c1.012,0,1.848-0.827,1.848-1.839c0-1.012-0.835-1.856-1.848-1.856c-1.012,0-1.84,0.844-1.84,1.856
				C126.095,61.393,126.922,62.22,127.934,62.22z"/>
			<path fill="#EF7E08" d="M134.607,57.771c-0.048-0.105,0.016-0.209,0.136-0.209h0.82c0.072,0,0.12,0.048,0.136,0.088l1.542,3.454
				h0.056l1.542-3.454c0.016-0.04,0.064-0.088,0.136-0.088h0.819c0.121,0,0.185,0.104,0.137,0.209l-2.49,5.406
				c-0.024,0.048-0.064,0.088-0.136,0.088h-0.08c-0.072,0-0.112-0.04-0.136-0.088L134.607,57.771z"/>
			<path fill="#EF7E08" d="M144.163,57.714c0-0.08,0.064-0.152,0.153-0.152h3.27c0.088,0,0.153,0.072,0.153,0.152v0.659
				c0,0.08-0.064,0.152-0.153,0.152h-2.378v1.318h1.984c0.08,0,0.153,0.072,0.153,0.153v0.666c0,0.088-0.072,0.153-0.153,0.153
				h-1.984v1.405h2.378c0.088,0,0.153,0.072,0.153,0.153v0.659c0,0.08-0.064,0.153-0.153,0.153h-3.27
				c-0.088,0-0.153-0.072-0.153-0.153V57.714z"/>
			<path fill="#EF7E08" d="M159.982,57.714c0-0.08,0.064-0.152,0.153-0.152h3.27c0.088,0,0.153,0.072,0.153,0.152v0.659
				c0,0.08-0.064,0.152-0.153,0.152h-2.378v1.511h1.984c0.08,0,0.153,0.072,0.153,0.152v0.659c0,0.08-0.072,0.153-0.153,0.153
				h-1.984v2.032c0,0.08-0.072,0.153-0.153,0.153h-0.739c-0.088,0-0.153-0.072-0.153-0.153V57.714z"/>
			<path fill="#EF7E08" d="M170.494,57.481c1.607,0,2.892,1.293,2.892,2.9c0,1.606-1.285,2.884-2.892,2.884
				s-2.884-1.277-2.884-2.884C167.61,58.774,168.888,57.481,170.494,57.481z M170.494,62.22c1.012,0,1.848-0.827,1.848-1.839
				c0-1.012-0.835-1.856-1.848-1.856s-1.84,0.844-1.84,1.856C168.655,61.393,169.482,62.22,170.494,62.22z"/>
			<path fill="#EF7E08" d="M177.938,57.714c0-0.08,0.064-0.152,0.153-0.152h2.298c0.964,0,1.751,0.771,1.751,1.727
				c0,0.739-0.49,1.341-1.189,1.623l1.1,2.041c0.056,0.104,0,0.233-0.136,0.233h-0.844c-0.072,0-0.112-0.04-0.129-0.072
				l-1.068-2.128h-0.892v2.048c0,0.08-0.072,0.153-0.153,0.153h-0.739c-0.088,0-0.153-0.072-0.153-0.153V57.714z M180.3,60.124
				c0.426,0,0.795-0.37,0.795-0.82c0-0.426-0.369-0.779-0.795-0.779h-1.309v1.599H180.3z"/>
			<path fill="#EF7E08" d="M186.289,57.754c-0.032-0.112,0.032-0.193,0.145-0.193h0.739c0.064,0,0.129,0.056,0.145,0.112
				l0.835,3.205h0.032l1.277-3.31c0.016-0.048,0.056-0.088,0.136-0.088h0.145c0.08,0,0.121,0.04,0.137,0.088l1.285,3.31h0.032
				l0.819-3.205c0.016-0.056,0.08-0.112,0.145-0.112h0.739c0.113,0,0.177,0.08,0.145,0.193l-1.518,5.398
				c-0.016,0.065-0.08,0.113-0.144,0.113h-0.129c-0.072,0-0.121-0.04-0.137-0.088l-1.438-3.639h-0.04l-1.422,3.639
				c-0.024,0.048-0.056,0.088-0.136,0.088h-0.129c-0.065,0-0.129-0.048-0.145-0.113L186.289,57.754z"/>
			<path fill="#EF7E08" d="M196.536,62.976l2.498-5.406c0.024-0.048,0.064-0.088,0.136-0.088h0.08c0.08,0,0.112,0.04,0.136,0.088
				l2.474,5.406c0.048,0.105-0.016,0.209-0.137,0.209h-0.699c-0.121,0-0.177-0.048-0.233-0.161l-0.394-0.867h-2.402l-0.394,0.867
				c-0.032,0.08-0.104,0.161-0.233,0.161h-0.699C196.552,63.185,196.488,63.08,196.536,62.976z M200.006,61.265l-0.803-1.767h-0.024
				l-0.787,1.767H200.006z"/>
			<path fill="#EF7E08" d="M206.092,57.714c0-0.08,0.064-0.152,0.153-0.152h2.298c0.964,0,1.751,0.771,1.751,1.727
				c0,0.739-0.49,1.341-1.189,1.623l1.1,2.041c0.056,0.104,0,0.233-0.136,0.233h-0.844c-0.072,0-0.112-0.04-0.129-0.072
				l-1.068-2.128h-0.892v2.048c0,0.08-0.072,0.153-0.153,0.153h-0.739c-0.088,0-0.153-0.072-0.153-0.153V57.714z M208.454,60.124
				c0.426,0,0.795-0.37,0.795-0.82c0-0.426-0.369-0.779-0.795-0.779h-1.309v1.599H208.454z"/>
			<path fill="#EF7E08" d="M214.942,57.714c0-0.08,0.064-0.152,0.145-0.152h1.904c1.55,0,2.819,1.261,2.819,2.803
				c0,1.559-1.269,2.82-2.819,2.82h-1.904c-0.08,0-0.145-0.072-0.145-0.153V57.714z M216.894,62.205c1.044,0,1.808-0.787,1.808-1.84
				c0-1.044-0.763-1.832-1.808-1.832h-0.916v3.671H216.894z"/>
		</g>
	</g>
	<g>
		<linearGradient id="SVGID_1_" gradientUnits="userSpaceOnUse" x1="9.1864" y1="61.1612" x2="22.9891" y2="74.9639">
			<stop  offset="0" style="stop-color:#F6A506"/>
			<stop  offset="0.4276" style="stop-color:#F6A406"/>
			<stop  offset="0.6469" style="stop-color:#F59D07"/>
			<stop  offset="0.8189" style="stop-color:#F29307"/>
			<stop  offset="0.9655" style="stop-color:#EF8308"/>
			<stop  offset="1" style="stop-color:#EF7E08"/>
		</linearGradient>
		<path fill="url(#SVGID_1_)" d="M23.349,60.983l-7.307-7.307c-0.06-0.06-0.116-0.121-0.176-0.181l-9.38,9.38
			c-2.743,2.743-2.743,7.19,0,9.933l4.346,4.346c2.743,2.743,7.19,2.743,9.933,0l2.585-2.585
			C30.211,67.707,23.349,60.983,23.349,60.983z"/>
		<linearGradient id="SVGID_2_" gradientUnits="userSpaceOnUse" x1="6.5191" y1="10.7325" x2="46.4088" y2="50.6222">
			<stop  offset="0" style="stop-color:#EB660C"/>
			<stop  offset="0.4227" style="stop-color:#EB640D"/>
			<stop  offset="0.6396" style="stop-color:#EA5D10"/>
			<stop  offset="0.8097" style="stop-color:#E85013"/>
			<stop  offset="0.9545" style="stop-color:#E63C16"/>
			<stop  offset="1" style="stop-color:#E53517"/>
		</linearGradient>
		<path fill="url(#SVGID_2_)" d="M49.625,33.595c7.036,7.036,1.555,13.143,1.555,13.143l-14.45,14.45c6.862-6.862,0-13.586,0-13.586
			L16.03,26.901C2.58,13.45,16.03,0,16.03,0S42.589,26.559,49.625,33.595z"/>
		<linearGradient id="SVGID_3_" gradientUnits="userSpaceOnUse" x1="5.4161" y1="36.3924" x2="33.3093" y2="64.2856">
			<stop  offset="0" style="stop-color:#EF7E08"/>
			<stop  offset="0.4204" style="stop-color:#EE7C09"/>
			<stop  offset="0.6361" style="stop-color:#ED760B"/>
			<stop  offset="0.8052" style="stop-color:#EB6A0F"/>
			<stop  offset="0.9493" style="stop-color:#E85813"/>
			<stop  offset="1" style="stop-color:#E65014"/>
		</linearGradient>
		<path fill="url(#SVGID_3_)" d="M36.244,46.976c7.036,7.036,1.555,13.143,1.555,13.143l-14.45,14.45c6.862-6.862,0-13.586,0-13.586
			l-7.307-7.307c-13.45-13.45,0-26.901,0-26.901S29.208,39.94,36.244,46.976z"/>
		
			<linearGradient id="SVGID_4_" gradientUnits="userSpaceOnUse" x1="159.9609" y1="539.1067" x2="179.7746" y2="539.1067" gradientTransform="matrix(0.7071 0.7071 -0.7071 0.7071 280.2086 -436.8203)">
			<stop  offset="0" style="stop-color:#FFD100"/>
			<stop  offset="1" style="stop-color:#490600"/>
		</linearGradient>
		<path opacity="0.5" fill="url(#SVGID_4_)" d="M16.029,53.744l7.307,7.307c0,0,6.862,6.724,0,13.586l-0.88,0.88
			c6.862-6.862-0.664-12.922-0.664-12.922l-7.307-7.307c-0.061-0.061-0.113-0.123-0.173-0.184l1.544-1.544
			C15.916,53.621,15.967,53.683,16.029,53.744z"/>
		
			<linearGradient id="SVGID_5_" gradientUnits="userSpaceOnUse" x1="141.369" y1="519.4491" x2="179.3384" y2="519.4491" gradientTransform="matrix(0.7071 0.7071 -0.7071 0.7071 280.2086 -436.8203)">
			<stop  offset="0" style="stop-color:#ED6D05"/>
			<stop  offset="1" style="stop-color:#490600"/>
		</linearGradient>
		<path opacity="0.5" fill="url(#SVGID_5_)" d="M34.523,48.697c-6.754-6.754-19.149-19.149-20.132-20.132
			c0.587-0.723,1.651-1.79,1.651-1.79S29.208,39.94,36.244,46.977s1.555,13.143,1.555,13.143l-1.056,1.056
			C36.742,61.176,41.559,55.733,34.523,48.697z"/>
		
			<linearGradient id="SVGID_6_" gradientUnits="userSpaceOnUse" x1="-21.9772" y1="87.3881" x2="35.9266" y2="87.3881" gradientTransform="matrix(0.7071 0.7071 -0.7071 0.7071 83.2413 -36.1307)">
			<stop  offset="0" style="stop-color:#8B2512"/>
			<stop  offset="1" style="stop-color:#F8AF07"/>
		</linearGradient>
		<path fill="url(#SVGID_6_)" d="M37.115,47.217L16.414,26.517C3.909,14.012,14.463,1.701,16.035,0.005
			C16.034,0.004,16.03,0,16.03,0s-13.45,13.45,0,26.901l20.701,20.701c0,0,6.862,6.724,0,13.586l0.192-0.192
			C43.785,54.134,37.115,47.217,37.115,47.217z"/>
		
			<linearGradient id="SVGID_7_" gradientUnits="userSpaceOnUse" x1="-3.0357" y1="106.3123" x2="35.9266" y2="106.3123" gradientTransform="matrix(0.7071 0.7071 -0.7071 0.7071 83.2413 -36.1307)">
			<stop  offset="0" style="stop-color:#AF2D17"/>
			<stop  offset="1" style="stop-color:#FFCD07"/>
		</linearGradient>
		<path fill="url(#SVGID_7_)" d="M23.733,60.599l-7.307-7.307C3.921,40.787,14.475,28.476,16.047,26.78
			c-0.002-0.002-0.005-0.005-0.005-0.005s-13.45,13.45,0,26.901l7.307,7.307c0,0,6.862,6.724,0,13.586l0.192-0.192
			C30.403,67.515,23.733,60.599,23.733,60.599z"/>
	</g>
</g>
</svg>
